<mxfile host="drawio-plugin" modified="2024-07-17T10:53:10.098Z" agent="Mozilla/5.0 (Windows NT 10.0; Win64; x64) AppleWebKit/537.36 (KHTML, like Gecko) Chrome/122.0.0.0 Safari/537.36" etag="4FfvJ8vD5TqfTP0Ny59X" version="22.1.22" type="embed">
  <diagram name="Страница — 1" id="wMb5JtGoc4GTotsweWVl">
    <mxGraphModel dx="1634" dy="699" grid="1" gridSize="10" guides="1" tooltips="1" connect="1" arrows="1" fold="1" page="0" pageScale="1" pageWidth="827" pageHeight="1169" math="0" shadow="0">
      <root>
        <mxCell id="0" />
        <mxCell id="1" parent="0" />
        <mxCell id="jkUJTz2cRrIhwqvdBRO4-59" value="" style="rounded=0;whiteSpace=wrap;html=1;" parent="1" vertex="1">
          <mxGeometry x="-610" y="530" width="200" height="220" as="geometry" />
        </mxCell>
        <mxCell id="jkUJTz2cRrIhwqvdBRO4-1" value="" style="rounded=0;whiteSpace=wrap;html=1;" parent="1" vertex="1">
          <mxGeometry x="120" y="45" width="200" height="280" as="geometry" />
        </mxCell>
        <mxCell id="jkUJTz2cRrIhwqvdBRO4-43" style="edgeStyle=none;rounded=0;orthogonalLoop=1;jettySize=auto;html=1;exitX=0;exitY=0.25;exitDx=0;exitDy=0;" parent="1" source="jkUJTz2cRrIhwqvdBRO4-1" target="jkUJTz2cRrIhwqvdBRO4-1" edge="1">
          <mxGeometry relative="1" as="geometry" />
        </mxCell>
        <mxCell id="jkUJTz2cRrIhwqvdBRO4-45" style="edgeStyle=none;shape=link;rounded=0;orthogonalLoop=1;jettySize=auto;html=1;exitX=0;exitY=0.25;exitDx=0;exitDy=0;" parent="1" source="jkUJTz2cRrIhwqvdBRO4-1" target="jkUJTz2cRrIhwqvdBRO4-1" edge="1">
          <mxGeometry relative="1" as="geometry" />
        </mxCell>
        <mxCell id="jkUJTz2cRrIhwqvdBRO4-46" value="user" style="rounded=0;whiteSpace=wrap;html=1;fillColor=#d5e8d4;strokeColor=#82b366;" parent="1" vertex="1">
          <mxGeometry x="-610" y="530" width="200" height="40" as="geometry" />
        </mxCell>
        <mxCell id="yWRuPxkpFBb5-WaLdx78-37" style="edgeStyle=orthogonalEdgeStyle;rounded=0;orthogonalLoop=1;jettySize=auto;html=1;exitX=1;exitY=0.5;exitDx=0;exitDy=0;endArrow=none;endFill=0;" parent="1" source="jkUJTz2cRrIhwqvdBRO4-47" edge="1">
          <mxGeometry relative="1" as="geometry">
            <mxPoint x="350" y="660" as="targetPoint" />
          </mxGeometry>
        </mxCell>
        <mxCell id="yWRuPxkpFBb5-WaLdx78-39" style="edgeStyle=orthogonalEdgeStyle;rounded=0;orthogonalLoop=1;jettySize=auto;html=1;endArrow=none;endFill=0;" parent="1" source="jkUJTz2cRrIhwqvdBRO4-47" edge="1">
          <mxGeometry relative="1" as="geometry">
            <mxPoint x="60" y="300" as="targetPoint" />
          </mxGeometry>
        </mxCell>
        <mxCell id="yWRuPxkpFBb5-WaLdx78-42" style="edgeStyle=orthogonalEdgeStyle;rounded=0;orthogonalLoop=1;jettySize=auto;html=1;exitX=0;exitY=0.5;exitDx=0;exitDy=0;endArrow=none;endFill=0;" parent="1" source="jkUJTz2cRrIhwqvdBRO4-47" edge="1">
          <mxGeometry relative="1" as="geometry">
            <mxPoint x="60" y="60" as="targetPoint" />
          </mxGeometry>
        </mxCell>
        <mxCell id="yWRuPxkpFBb5-WaLdx78-44" style="edgeStyle=orthogonalEdgeStyle;rounded=0;orthogonalLoop=1;jettySize=auto;html=1;endArrow=none;endFill=0;" parent="1" source="jkUJTz2cRrIhwqvdBRO4-47" edge="1">
          <mxGeometry relative="1" as="geometry">
            <mxPoint x="60" y="60" as="targetPoint" />
          </mxGeometry>
        </mxCell>
        <mxCell id="jkUJTz2cRrIhwqvdBRO4-47" value="product_id (int)" style="rounded=0;whiteSpace=wrap;html=1;" parent="1" vertex="1">
          <mxGeometry x="120" y="85" width="200" height="30" as="geometry" />
        </mxCell>
        <mxCell id="jkUJTz2cRrIhwqvdBRO4-52" value="name (varchar)" style="rounded=0;whiteSpace=wrap;html=1;" parent="1" vertex="1">
          <mxGeometry x="120" y="115" width="200" height="30" as="geometry" />
        </mxCell>
        <mxCell id="jkUJTz2cRrIhwqvdBRO4-53" value="brand (varchar)" style="rounded=0;whiteSpace=wrap;html=1;" parent="1" vertex="1">
          <mxGeometry x="120" y="145" width="200" height="30" as="geometry" />
        </mxCell>
        <mxCell id="jkUJTz2cRrIhwqvdBRO4-54" value="description (text)" style="rounded=0;whiteSpace=wrap;html=1;" parent="1" vertex="1">
          <mxGeometry x="120" y="175" width="200" height="30" as="geometry" />
        </mxCell>
        <mxCell id="jkUJTz2cRrIhwqvdBRO4-55" value="price (numeric)" style="rounded=0;whiteSpace=wrap;html=1;" parent="1" vertex="1">
          <mxGeometry x="120" y="205" width="200" height="30" as="geometry" />
        </mxCell>
        <mxCell id="jkUJTz2cRrIhwqvdBRO4-56" value="volume (int)" style="rounded=0;whiteSpace=wrap;html=1;" parent="1" vertex="1">
          <mxGeometry x="120" y="235" width="200" height="30" as="geometry" />
        </mxCell>
        <mxCell id="jkUJTz2cRrIhwqvdBRO4-57" value="components (text)" style="rounded=0;whiteSpace=wrap;html=1;" parent="1" vertex="1">
          <mxGeometry x="120" y="265" width="200" height="30" as="geometry" />
        </mxCell>
        <mxCell id="jkUJTz2cRrIhwqvdBRO4-58" value="scent groups (text)" style="rounded=0;whiteSpace=wrap;html=1;" parent="1" vertex="1">
          <mxGeometry x="120" y="295" width="200" height="30" as="geometry" />
        </mxCell>
        <mxCell id="jkUJTz2cRrIhwqvdBRO4-60" value="product (perfume)" style="rounded=0;whiteSpace=wrap;html=1;fillColor=#d5e8d4;strokeColor=#82b366;" parent="1" vertex="1">
          <mxGeometry x="120" y="45" width="200" height="40" as="geometry" />
        </mxCell>
        <mxCell id="yWRuPxkpFBb5-WaLdx78-14" style="edgeStyle=none;rounded=0;orthogonalLoop=1;jettySize=auto;html=1;exitX=1;exitY=0.5;exitDx=0;exitDy=0;" parent="1" source="jkUJTz2cRrIhwqvdBRO4-65" target="yWRuPxkpFBb5-WaLdx78-11" edge="1">
          <mxGeometry relative="1" as="geometry" />
        </mxCell>
        <mxCell id="yWRuPxkpFBb5-WaLdx78-46" style="edgeStyle=orthogonalEdgeStyle;rounded=0;orthogonalLoop=1;jettySize=auto;html=1;exitX=1;exitY=0.5;exitDx=0;exitDy=0;endArrow=none;endFill=0;" parent="1" source="jkUJTz2cRrIhwqvdBRO4-65" edge="1">
          <mxGeometry relative="1" as="geometry">
            <mxPoint x="-360" y="660" as="targetPoint" />
          </mxGeometry>
        </mxCell>
        <mxCell id="jkUJTz2cRrIhwqvdBRO4-65" value="user_id (int)" style="rounded=0;whiteSpace=wrap;html=1;" parent="1" vertex="1">
          <mxGeometry x="-610" y="570" width="200" height="30" as="geometry" />
        </mxCell>
        <mxCell id="jkUJTz2cRrIhwqvdBRO4-66" value="name (varchar)" style="rounded=0;whiteSpace=wrap;html=1;" parent="1" vertex="1">
          <mxGeometry x="-610" y="600" width="200" height="30" as="geometry" />
        </mxCell>
        <mxCell id="jkUJTz2cRrIhwqvdBRO4-68" value="surname&amp;nbsp;(varchar)" style="rounded=0;whiteSpace=wrap;html=1;" parent="1" vertex="1">
          <mxGeometry x="-610" y="630" width="200" height="30" as="geometry" />
        </mxCell>
        <mxCell id="jkUJTz2cRrIhwqvdBRO4-69" value="address&amp;nbsp;(varchar)" style="rounded=0;whiteSpace=wrap;html=1;" parent="1" vertex="1">
          <mxGeometry x="-610" y="660" width="200" height="30" as="geometry" />
        </mxCell>
        <mxCell id="jkUJTz2cRrIhwqvdBRO4-70" value="email&amp;nbsp;(varchar)" style="rounded=0;whiteSpace=wrap;html=1;" parent="1" vertex="1">
          <mxGeometry x="-610" y="690" width="200" height="30" as="geometry" />
        </mxCell>
        <mxCell id="jkUJTz2cRrIhwqvdBRO4-73" value="phone&amp;nbsp;(varchar)" style="rounded=0;whiteSpace=wrap;html=1;" parent="1" vertex="1">
          <mxGeometry x="-610" y="720" width="200" height="30" as="geometry" />
        </mxCell>
        <mxCell id="jkUJTz2cRrIhwqvdBRO4-74" value="stock amount (int)" style="rounded=0;whiteSpace=wrap;html=1;" parent="1" vertex="1">
          <mxGeometry x="120" y="325" width="200" height="30" as="geometry" />
        </mxCell>
        <mxCell id="jkUJTz2cRrIhwqvdBRO4-83" value="" style="rounded=0;whiteSpace=wrap;html=1;" parent="1" vertex="1">
          <mxGeometry x="-550" y="-40" width="200" height="160" as="geometry" />
        </mxCell>
        <mxCell id="jkUJTz2cRrIhwqvdBRO4-84" value="categories" style="rounded=0;whiteSpace=wrap;html=1;fillColor=#d5e8d4;strokeColor=#82b366;" parent="1" vertex="1">
          <mxGeometry x="-550" y="-40" width="200" height="40" as="geometry" />
        </mxCell>
        <mxCell id="jkUJTz2cRrIhwqvdBRO4-92" value="" style="edgeStyle=none;rounded=0;orthogonalLoop=1;jettySize=auto;html=1;entryX=0;entryY=0.5;entryDx=0;entryDy=0;" parent="1" source="jkUJTz2cRrIhwqvdBRO4-85" target="jkUJTz2cRrIhwqvdBRO4-90" edge="1">
          <mxGeometry relative="1" as="geometry" />
        </mxCell>
        <mxCell id="jkUJTz2cRrIhwqvdBRO4-85" value="category_id (int)" style="rounded=0;whiteSpace=wrap;html=1;" parent="1" vertex="1">
          <mxGeometry x="-550" width="200" height="40" as="geometry" />
        </mxCell>
        <mxCell id="jkUJTz2cRrIhwqvdBRO4-86" value="name (varchar)" style="rounded=0;whiteSpace=wrap;html=1;" parent="1" vertex="1">
          <mxGeometry x="-550" y="40" width="200" height="40" as="geometry" />
        </mxCell>
        <mxCell id="jkUJTz2cRrIhwqvdBRO4-87" value="description (text)" style="rounded=0;whiteSpace=wrap;html=1;" parent="1" vertex="1">
          <mxGeometry x="-550" y="80" width="200" height="40" as="geometry" />
        </mxCell>
        <mxCell id="jkUJTz2cRrIhwqvdBRO4-88" value="" style="rounded=0;whiteSpace=wrap;html=1;" parent="1" vertex="1">
          <mxGeometry x="-270" y="-40" width="240" height="120" as="geometry" />
        </mxCell>
        <mxCell id="jkUJTz2cRrIhwqvdBRO4-89" value="categories_product" style="rounded=0;whiteSpace=wrap;html=1;fillColor=#d5e8d4;strokeColor=#82b366;" parent="1" vertex="1">
          <mxGeometry x="-270" y="-40" width="240" height="40" as="geometry" />
        </mxCell>
        <mxCell id="jkUJTz2cRrIhwqvdBRO4-90" value="category_id" style="rounded=0;whiteSpace=wrap;html=1;" parent="1" vertex="1">
          <mxGeometry x="-270" width="240" height="40" as="geometry" />
        </mxCell>
        <mxCell id="yWRuPxkpFBb5-WaLdx78-43" style="edgeStyle=none;rounded=0;orthogonalLoop=1;jettySize=auto;html=1;exitX=1;exitY=0.5;exitDx=0;exitDy=0;endArrow=none;endFill=0;startArrow=classic;startFill=1;" parent="1" source="jkUJTz2cRrIhwqvdBRO4-91" edge="1">
          <mxGeometry relative="1" as="geometry">
            <mxPoint x="60" y="59.838709677419274" as="targetPoint" />
          </mxGeometry>
        </mxCell>
        <mxCell id="jkUJTz2cRrIhwqvdBRO4-91" value="product_id" style="rounded=0;whiteSpace=wrap;html=1;" parent="1" vertex="1">
          <mxGeometry x="-270" y="40" width="240" height="40" as="geometry" />
        </mxCell>
        <mxCell id="jkUJTz2cRrIhwqvdBRO4-94" value="" style="rounded=0;whiteSpace=wrap;html=1;" parent="1" vertex="1">
          <mxGeometry x="-310" y="560" width="240" height="200" as="geometry" />
        </mxCell>
        <mxCell id="jkUJTz2cRrIhwqvdBRO4-95" value="order" style="rounded=0;whiteSpace=wrap;html=1;fillColor=#d5e8d4;strokeColor=#82b366;" parent="1" vertex="1">
          <mxGeometry x="-310" y="560" width="240" height="40" as="geometry" />
        </mxCell>
        <mxCell id="jkUJTz2cRrIhwqvdBRO4-96" value="order_id" style="rounded=0;whiteSpace=wrap;html=1;" parent="1" vertex="1">
          <mxGeometry x="-310" y="600" width="240" height="40" as="geometry" />
        </mxCell>
        <mxCell id="yWRuPxkpFBb5-WaLdx78-47" style="edgeStyle=none;rounded=0;orthogonalLoop=1;jettySize=auto;html=1;exitX=0;exitY=0.5;exitDx=0;exitDy=0;endArrow=none;endFill=0;startArrow=classic;startFill=1;" parent="1" source="jkUJTz2cRrIhwqvdBRO4-97" edge="1">
          <mxGeometry relative="1" as="geometry">
            <mxPoint x="-360.0000000000001" y="659.8571428571429" as="targetPoint" />
          </mxGeometry>
        </mxCell>
        <mxCell id="jkUJTz2cRrIhwqvdBRO4-97" value="user_id" style="rounded=0;whiteSpace=wrap;html=1;" parent="1" vertex="1">
          <mxGeometry x="-310" y="640" width="240" height="40" as="geometry" />
        </mxCell>
        <mxCell id="jkUJTz2cRrIhwqvdBRO4-98" value="total price (numeric)" style="rounded=0;whiteSpace=wrap;html=1;" parent="1" vertex="1">
          <mxGeometry x="-310" y="680" width="240" height="40" as="geometry" />
        </mxCell>
        <mxCell id="jkUJTz2cRrIhwqvdBRO4-99" value="status (varchar)" style="rounded=0;whiteSpace=wrap;html=1;" parent="1" vertex="1">
          <mxGeometry x="-310" y="720" width="240" height="40" as="geometry" />
        </mxCell>
        <mxCell id="jkUJTz2cRrIhwqvdBRO4-100" value="" style="rounded=0;whiteSpace=wrap;html=1;" parent="1" vertex="1">
          <mxGeometry x="-310" y="760" width="240" as="geometry" />
        </mxCell>
        <mxCell id="jkUJTz2cRrIhwqvdBRO4-102" value="" style="rounded=0;whiteSpace=wrap;html=1;" parent="1" vertex="1">
          <mxGeometry x="20" y="520" width="250" height="240" as="geometry" />
        </mxCell>
        <mxCell id="jkUJTz2cRrIhwqvdBRO4-103" value="order_item" style="rounded=0;whiteSpace=wrap;html=1;fillColor=#d5e8d4;strokeColor=#82b366;" parent="1" vertex="1">
          <mxGeometry x="20" y="520" width="250" height="40" as="geometry" />
        </mxCell>
        <mxCell id="jkUJTz2cRrIhwqvdBRO4-104" value="order_item_id (int)" style="rounded=0;whiteSpace=wrap;html=1;" parent="1" vertex="1">
          <mxGeometry x="20" y="560" width="250" height="40" as="geometry" />
        </mxCell>
        <mxCell id="jkUJTz2cRrIhwqvdBRO4-117" style="edgeStyle=none;rounded=0;orthogonalLoop=1;jettySize=auto;html=1;entryX=1;entryY=0.5;entryDx=0;entryDy=0;elbow=vertical;startArrow=none;startFill=0;endArrow=classic;endFill=1;" parent="1" source="jkUJTz2cRrIhwqvdBRO4-105" target="jkUJTz2cRrIhwqvdBRO4-96" edge="1">
          <mxGeometry relative="1" as="geometry" />
        </mxCell>
        <mxCell id="jkUJTz2cRrIhwqvdBRO4-105" value="order_id" style="rounded=0;whiteSpace=wrap;html=1;" parent="1" vertex="1">
          <mxGeometry x="20" y="600" width="250" height="40" as="geometry" />
        </mxCell>
        <mxCell id="yWRuPxkpFBb5-WaLdx78-38" style="edgeStyle=none;rounded=0;orthogonalLoop=1;jettySize=auto;html=1;exitX=1;exitY=0.5;exitDx=0;exitDy=0;endArrow=none;endFill=0;startArrow=classic;startFill=1;" parent="1" source="jkUJTz2cRrIhwqvdBRO4-106" edge="1">
          <mxGeometry relative="1" as="geometry">
            <mxPoint x="350" y="660" as="targetPoint" />
          </mxGeometry>
        </mxCell>
        <mxCell id="jkUJTz2cRrIhwqvdBRO4-106" value="product_id" style="rounded=0;whiteSpace=wrap;html=1;" parent="1" vertex="1">
          <mxGeometry x="20" y="640" width="250" height="40" as="geometry" />
        </mxCell>
        <mxCell id="jkUJTz2cRrIhwqvdBRO4-107" value="amount (int)" style="rounded=0;whiteSpace=wrap;html=1;" parent="1" vertex="1">
          <mxGeometry x="20" y="680" width="250" height="40" as="geometry" />
        </mxCell>
        <mxCell id="jkUJTz2cRrIhwqvdBRO4-108" value="price (numeric)" style="rounded=0;whiteSpace=wrap;html=1;" parent="1" vertex="1">
          <mxGeometry x="20" y="720" width="250" height="40" as="geometry" />
        </mxCell>
        <mxCell id="yWRuPxkpFBb5-WaLdx78-2" value="date (timestampz)" style="rounded=0;whiteSpace=wrap;html=1;" parent="1" vertex="1">
          <mxGeometry x="-310" y="760" width="240" height="40" as="geometry" />
        </mxCell>
        <mxCell id="yWRuPxkpFBb5-WaLdx78-4" value="" style="rounded=0;whiteSpace=wrap;html=1;" parent="1" vertex="1">
          <mxGeometry x="-840" y="330" width="160" height="120" as="geometry" />
        </mxCell>
        <mxCell id="yWRuPxkpFBb5-WaLdx78-5" value="role" style="rounded=0;whiteSpace=wrap;html=1;fillColor=#d5e8d4;strokeColor=#82b366;" parent="1" vertex="1">
          <mxGeometry x="-840" y="330" width="160" height="40" as="geometry" />
        </mxCell>
        <mxCell id="yWRuPxkpFBb5-WaLdx78-48" style="edgeStyle=orthogonalEdgeStyle;rounded=0;orthogonalLoop=1;jettySize=auto;html=1;exitX=0;exitY=0.5;exitDx=0;exitDy=0;endArrow=none;endFill=0;" parent="1" source="yWRuPxkpFBb5-WaLdx78-6" edge="1">
          <mxGeometry relative="1" as="geometry">
            <mxPoint x="-910" y="630" as="targetPoint" />
          </mxGeometry>
        </mxCell>
        <mxCell id="yWRuPxkpFBb5-WaLdx78-6" value="role_id (int)" style="rounded=0;whiteSpace=wrap;html=1;" parent="1" vertex="1">
          <mxGeometry x="-840" y="370" width="160" height="40" as="geometry" />
        </mxCell>
        <mxCell id="yWRuPxkpFBb5-WaLdx78-7" value="name (varchar)" style="rounded=0;whiteSpace=wrap;html=1;" parent="1" vertex="1">
          <mxGeometry x="-840" y="410" width="160" height="40" as="geometry" />
        </mxCell>
        <mxCell id="yWRuPxkpFBb5-WaLdx78-9" value="" style="rounded=0;whiteSpace=wrap;html=1;" parent="1" vertex="1">
          <mxGeometry x="-830" y="525" width="140" height="120" as="geometry" />
        </mxCell>
        <mxCell id="yWRuPxkpFBb5-WaLdx78-10" value="user_role" style="rounded=0;whiteSpace=wrap;html=1;fillColor=#d5e8d4;strokeColor=#82b366;" parent="1" vertex="1">
          <mxGeometry x="-830" y="525" width="140" height="40" as="geometry" />
        </mxCell>
        <mxCell id="yWRuPxkpFBb5-WaLdx78-11" value="user_id" style="rounded=0;whiteSpace=wrap;html=1;" parent="1" vertex="1">
          <mxGeometry x="-830" y="565" width="140" height="40" as="geometry" />
        </mxCell>
        <mxCell id="yWRuPxkpFBb5-WaLdx78-49" style="edgeStyle=none;rounded=0;orthogonalLoop=1;jettySize=auto;html=1;exitX=-0.003;exitY=0.622;exitDx=0;exitDy=0;endArrow=none;endFill=0;startArrow=classic;startFill=1;exitPerimeter=0;" parent="1" source="yWRuPxkpFBb5-WaLdx78-12" edge="1">
          <mxGeometry relative="1" as="geometry">
            <mxPoint x="-910" y="630" as="targetPoint" />
          </mxGeometry>
        </mxCell>
        <mxCell id="yWRuPxkpFBb5-WaLdx78-12" value="role_id" style="rounded=0;whiteSpace=wrap;html=1;" parent="1" vertex="1">
          <mxGeometry x="-830" y="605" width="140" height="40" as="geometry" />
        </mxCell>
        <mxCell id="yWRuPxkpFBb5-WaLdx78-19" value="" style="rounded=0;whiteSpace=wrap;html=1;" parent="1" vertex="1">
          <mxGeometry x="-550" y="210" width="205" height="160" as="geometry" />
        </mxCell>
        <mxCell id="yWRuPxkpFBb5-WaLdx78-20" value="discount" style="rounded=0;whiteSpace=wrap;html=1;fillColor=#d5e8d4;strokeColor=#82b366;" parent="1" vertex="1">
          <mxGeometry x="-550" y="210" width="205" height="40" as="geometry" />
        </mxCell>
        <mxCell id="yWRuPxkpFBb5-WaLdx78-34" style="edgeStyle=none;rounded=0;orthogonalLoop=1;jettySize=auto;html=1;exitX=1;exitY=0.5;exitDx=0;exitDy=0;entryX=0;entryY=0.5;entryDx=0;entryDy=0;" parent="1" source="yWRuPxkpFBb5-WaLdx78-21" target="yWRuPxkpFBb5-WaLdx78-32" edge="1">
          <mxGeometry relative="1" as="geometry" />
        </mxCell>
        <mxCell id="yWRuPxkpFBb5-WaLdx78-21" value="discount_id (int)" style="rounded=0;whiteSpace=wrap;html=1;" parent="1" vertex="1">
          <mxGeometry x="-550" y="250" width="205" height="40" as="geometry" />
        </mxCell>
        <mxCell id="yWRuPxkpFBb5-WaLdx78-22" value="discount percent (numeric)" style="rounded=0;whiteSpace=wrap;html=1;" parent="1" vertex="1">
          <mxGeometry x="-550" y="290" width="205" height="40" as="geometry" />
        </mxCell>
        <mxCell id="yWRuPxkpFBb5-WaLdx78-23" value="discount description (text)" style="rounded=0;whiteSpace=wrap;html=1;" parent="1" vertex="1">
          <mxGeometry x="-550" y="450" width="205" height="40" as="geometry" />
        </mxCell>
        <mxCell id="yWRuPxkpFBb5-WaLdx78-24" value="city (varchar)" style="rounded=0;whiteSpace=wrap;html=1;" parent="1" vertex="1">
          <mxGeometry x="-610" y="780" width="200" height="30" as="geometry" />
        </mxCell>
        <mxCell id="yWRuPxkpFBb5-WaLdx78-25" value="postcode (varchar)" style="rounded=0;whiteSpace=wrap;html=1;" parent="1" vertex="1">
          <mxGeometry x="-610" y="810" width="200" height="30" as="geometry" />
        </mxCell>
        <mxCell id="yWRuPxkpFBb5-WaLdx78-26" value="country&amp;nbsp;(varchar)" style="rounded=0;whiteSpace=wrap;html=1;" parent="1" vertex="1">
          <mxGeometry x="-610" y="750" width="200" height="30" as="geometry" />
        </mxCell>
        <mxCell id="yWRuPxkpFBb5-WaLdx78-27" value="discount start (date)" style="rounded=0;whiteSpace=wrap;html=1;" parent="1" vertex="1">
          <mxGeometry x="-550" y="370" width="205" height="40" as="geometry" />
        </mxCell>
        <mxCell id="yWRuPxkpFBb5-WaLdx78-29" value="discount end (date)" style="rounded=0;whiteSpace=wrap;html=1;" parent="1" vertex="1">
          <mxGeometry x="-550" y="410" width="205" height="40" as="geometry" />
        </mxCell>
        <mxCell id="yWRuPxkpFBb5-WaLdx78-30" value="" style="rounded=0;whiteSpace=wrap;html=1;" parent="1" vertex="1">
          <mxGeometry x="-245" y="210" width="200" height="120" as="geometry" />
        </mxCell>
        <mxCell id="yWRuPxkpFBb5-WaLdx78-31" value="discount_product" style="rounded=0;whiteSpace=wrap;html=1;fillColor=#d5e8d4;strokeColor=#82b366;" parent="1" vertex="1">
          <mxGeometry x="-245" y="210" width="200" height="40" as="geometry" />
        </mxCell>
        <mxCell id="yWRuPxkpFBb5-WaLdx78-32" value="discount_id" style="rounded=0;whiteSpace=wrap;html=1;" parent="1" vertex="1">
          <mxGeometry x="-245" y="250" width="200" height="40" as="geometry" />
        </mxCell>
        <mxCell id="yWRuPxkpFBb5-WaLdx78-40" style="edgeStyle=none;rounded=0;orthogonalLoop=1;jettySize=auto;html=1;endArrow=none;endFill=0;startArrow=classic;startFill=1;exitX=1;exitY=0.5;exitDx=0;exitDy=0;" parent="1" source="yWRuPxkpFBb5-WaLdx78-33" edge="1">
          <mxGeometry relative="1" as="geometry">
            <mxPoint x="60" y="310" as="targetPoint" />
            <mxPoint x="1" y="310" as="sourcePoint" />
          </mxGeometry>
        </mxCell>
        <mxCell id="yWRuPxkpFBb5-WaLdx78-33" value="product_id" style="rounded=0;whiteSpace=wrap;html=1;" parent="1" vertex="1">
          <mxGeometry x="-245" y="290" width="200" height="40" as="geometry" />
        </mxCell>
        <mxCell id="yWRuPxkpFBb5-WaLdx78-41" style="edgeStyle=orthogonalEdgeStyle;rounded=0;orthogonalLoop=1;jettySize=auto;html=1;endArrow=none;endFill=0;" parent="1" source="jkUJTz2cRrIhwqvdBRO4-47" edge="1">
          <mxGeometry relative="1" as="geometry">
            <mxPoint x="60" y="310" as="targetPoint" />
            <mxPoint x="120" y="100" as="sourcePoint" />
          </mxGeometry>
        </mxCell>
        <mxCell id="yWRuPxkpFBb5-WaLdx78-51" value="discount name (varchar)" style="rounded=0;whiteSpace=wrap;html=1;" parent="1" vertex="1">
          <mxGeometry x="-550" y="330" width="205" height="40" as="geometry" />
        </mxCell>
        <mxCell id="OZip0dzk1UKFT6d5UYts-1" value="gender" style="rounded=0;whiteSpace=wrap;html=1;" parent="1" vertex="1">
          <mxGeometry x="120" y="355" width="200" height="35" as="geometry" />
        </mxCell>
        <mxCell id="2" value="password (varchar)" style="rounded=0;whiteSpace=wrap;html=1;" vertex="1" parent="1">
          <mxGeometry x="-610" y="840" width="200" height="30" as="geometry" />
        </mxCell>
      </root>
    </mxGraphModel>
  </diagram>
</mxfile>
